#!OML:ASF X:\für Bonn\!DataBase\2005_08_12_Daniel\c3d\Daniel.ASF
:FULLY-SPECIFIED
:DEGREES
830
root 5.15135 16.8932 22.2221 -18.265 35.4333 -15.2642
lowerback 12.1189 -3.94915 12.0087
upperback 2.55262 -3.43554 3.58404
thorax -4.56832 -1.78228 -2.36957
lowerneck -0.984417 3.92211 -0.738703
upperneck 17.387 6.09627 -3.49084
head 5.49023 2.76751 -0.655443
rclavicle -1.87603e-015 2.14687e-014
rhumerus -45.2722 -45.5124 -48.7365
rradius 9.28378
rwrist 49.8687
rhand -19.5914 14.7001
rfingers 7.12502
rthumb 6.73431 -15.1728
lclavicle -1.87603e-015 2.14687e-014
lhumerus -32.3148 41.5321 73.2138
lradius 13.8957
lwrist -53.4942
lhand -6.93624 -3.47827
lfingers 7.12502
lthumb 18.9321 25.6204
rfemur -11.9254 4.77147 30.6268
rtibia 33.3027
rfoot -11.8359 3.46842
rtoes -11.9316
lfemur -2.29887 6.20501 -6.30054
ltibia 78.9535
lfoot 4.90739 -8.65825
ltoes -2.40589
831
root 5.23058 16.9191 22.3581 -18.4472 35.8146 -15.1809
lowerback 12.3989 -3.81662 12.0154
upperback 2.5728 -3.2198 3.49426
thorax -4.67828 -1.68053 -2.49346
lowerneck -1.21564 3.83358 -0.665886
upperneck 17.67 5.98297 -3.41289
head 5.6157 2.71486 -0.640635
rclavicle 2.78951e-014 4.49253e-014
rhumerus -45.3927 -46.0023 -48.3714
rradius 9.50761
rwrist 50.8939
rhand -19.6266 15.3775
rfingers 7.12502
rthumb 6.70031 -14.4965
lclavicle 2.78951e-014 4.49253e-014
lhumerus -33.2352 41.8436 72.0394
lradius 14.0137
lwrist -55.294
lhand -6.69291 -3.97926
lfingers 7.12502
lthumb 19.1661 25.0963
rfemur -10.9244 5.00605 30.6534
rtibia 33.0584
rfoot -12.3381 2.91438
rtoes -11.9522
lfemur -4.00195 6.49983 -6.55774
ltibia 80.3503
lfoot 3.74472 -8.84959
ltoes -1.38427
832
root 5.31013 16.9445 22.4926 -18.5584 36.2014 -15.0129
lowerback 12.659 -3.66443 11.9546
upperback 2.59183 -2.99304 3.37584
thorax -4.77439 -1.57274 -2.6156
lowerneck -1.3662 3.75687 -0.596336
upperneck 17.8771 5.87306 -3.29809
head 5.70275 2.66902 -0.616539
rclavicle 2.09252e-014 1.80894e-014
rhumerus -45.5978 -46.5037 -47.9781
rradius 9.78648
rwrist 51.9812
rhand -19.6344 16.0139
rfingers 7.12502
rthumb 6.69272 -13.8603
lclavicle 2.09252e-014 1.80894e-014
lhumerus -34.2155 42.3977 70.6402
lradius 14.0379
lwrist -57.241
lhand -6.6458 -4.66832
lfingers 7.12502
lthumb 19.2114 24.4028
rfemur -9.98621 5.14154 30.5938
rtibia 32.8853
rfoot -12.8515 2.48976
rtoes -12.0923
lfemur -5.71536 6.79834 -6.96336
ltibia 81.4865
lfoot 2.73895 -9.204
ltoes -0.796867
833
root 5.38964 16.968 22.6248 -18.63 36.5828 -14.8028
lowerback 12.8551 -3.49642 11.8209
upperback 2.66443 -2.76884 3.29031
thorax -4.7724 -1.45874 -2.66885
lowerneck -1.56818 3.68207 -0.603294
upperneck 18.0487 5.77627 -3.22635
head 5.78727 2.62187 -0.59194
rclavicle 1.91299e-014 1.6201e-014
rhumerus -45.72 -46.9977 -47.5818
rradius 10.0875
rwrist 53.147
rhand -19.7004 16.6246
rfingers 7.12502
rthumb 6.62908 -13.2517
lclavicle 1.91299e-014 1.6201e-014
lhumerus -34.9933 42.7807 69.5158
lradius 14.0793
lwrist -58.6174
lhand -6.70842 -5.39636
lfingers 7.12502
lthumb 19.1512 23.6807
rfemur -9.10529 5.255 30.5054
rtibia 32.7739
rfoot -13.3268 2.08308
rtoes -12.0108
lfemur -7.40697 7.08635 -7.45109
ltibia 82.3806
lfoot 1.82743 -9.81247
ltoes -0.940328
834
root 5.46987 16.9893 22.7548 -18.6706 36.9685 -14.5532
lowerback 13.0408 -3.33328 11.6543
upperback 2.73433 -2.55845 3.1949
thorax -4.76875 -1.35137 -2.71278
lowerneck -1.63991 3.62911 -0.631256
upperneck 18.1125 5.69584 -3.11709
head 5.8143 2.5876 -0.55534
rclavicle 2.06239e-015 -4.39314e-014
rhumerus -42.8637 -44.4223 -51.3598
rradius 10.4342
rwrist 50.2162
rhand -19.8459 16.4709
rfingers 7.12502
rthumb 6.48858 -13.4097
lclavicle 2.06239e-015 -4.39314e-014
lhumerus -35.4263 42.4322 68.8844
lradius 14.2031
lwrist -58.7987
lhand -6.84104 -6.02922
lfingers 7.12502
lthumb 19.0237 23.0605
rfemur -8.26646 5.38584 30.3838
rtibia 32.7239
rfoot -13.8107 1.6762
rtoes -11.9172
lfemur -9.0272 7.30658 -8.03481
ltibia 83.0215
lfoot 1.02231 -10.4684
ltoes -1.495
835
root 5.55093 17.0089 22.8826 -18.6965 37.3217 -14.3139
lowerback 13.201 -3.14898 11.5242
upperback 2.80166 -2.31916 3.10438
thorax -4.75133 -1.22973 -2.77826
lowerneck -1.67509 3.56831 -0.719141
upperneck 18.1648 5.60373 -2.98115
head 5.82913 2.54653 -0.502124
rclavicle 1.72073e-015 2.0276e-014
rhumerus -40.3712 -41.6885 -54.7876
rradius 10.8028
rwrist 47.2703
rhand -20.0665 16.2393
rfingers 7.12502
rthumb 6.27564 -13.6477
lclavicle 1.72073e-015 2.0276e-014
lhumerus -35.5646 41.431 68.7492
lradius 14.4066
lwrist -57.8094
lhand -7.01347 -6.55268
lfingers 7.12502
lthumb 18.8579 22.5532
rfemur -7.4651 5.47096 30.2704
rtibia 32.7014
rfoot -14.2504 1.34037
rtoes -11.7809
lfemur -10.5886 7.47498 -8.64647
ltibia 83.4267
lfoot 0.358747 -11.0105
ltoes -1.97995
836
root 5.63175 17.0273 23.0082 -18.7261 37.6558 -14.1169
lowerback 13.3494 -2.97734 11.4354
upperback 2.86602 -2.09175 3.02632
thorax -4.7332 -1.11428 -2.85157
lowerneck -1.61265 3.52091 -0.846197
upperneck 18.0903 5.52434 -2.84836
head 5.78682 2.51207 -0.446108
rclavicle -6.24526e-014 3.06128e-014
rhumerus -38.2003 -38.7958 -57.9216
rradius 11.2561
rwrist 44.3336
rhand -20.248 15.932
rfingers 7.12502
rthumb 6.1004 -13.9601
lclavicle -6.24526e-014 3.06128e-014
lhumerus -35.4478 39.8989 69.0208
lradius 14.6822
lwrist -55.7128
lhand -7.25655 -6.90524
lfingers 7.12502
lthumb 18.6241 22.2232
rfemur -6.71683 5.54594 30.202
rtibia 32.7066
rfoot -14.6608 1.01969
rtoes -11.7418
lfemur -12.1164 7.65812 -9.20789
ltibia 83.627
lfoot -0.381086 -11.5072
ltoes -2.90334
